<svg xmlns="http://www.w3.org/2000/svg" width="560" height="420" viewBox="0 0 560 420">
<text x="70" y="33" text-anchor="middle" font-size="10" font-family="serif" font-weight="bold">4-step</text>
<text x="70" y="46" text-anchor="middle" font-size="10" font-family="serif" font-weight="bold">Sarsa</text>
<circle cx="70" cy="55" r="10" fill="white" stroke="black" stroke-width="1.5"/>
<line x1="70" y1="65" x2="70" y2="79" stroke="black" stroke-width="1.5"/>
<circle cx="70" cy="85" r="6" fill="black"/>
<line x1="70" y1="91" x2="70" y2="105" stroke="black" stroke-width="1.5"/>
<circle cx="70" cy="115" r="10" fill="white" stroke="black" stroke-width="1.5"/>
<line x1="70" y1="125" x2="70" y2="139" stroke="black" stroke-width="1.5"/>
<circle cx="70" cy="145" r="6" fill="black"/>
<line x1="70" y1="151" x2="70" y2="165" stroke="black" stroke-width="1.5"/>
<circle cx="70" cy="175" r="10" fill="white" stroke="black" stroke-width="1.5"/>
<line x1="70" y1="185" x2="70" y2="199" stroke="black" stroke-width="1.5"/>
<circle cx="70" cy="205" r="6" fill="black"/>
<line x1="70" y1="211" x2="70" y2="225" stroke="black" stroke-width="1.5"/>
<circle cx="70" cy="235" r="10" fill="white" stroke="black" stroke-width="1.5"/>
<line x1="70" y1="245" x2="70" y2="259" stroke="black" stroke-width="1.5"/>
<circle cx="70" cy="265" r="6" fill="black"/>
<line x1="70" y1="271" x2="70" y2="285" stroke="black" stroke-width="1.5"/>
<circle cx="70" cy="295" r="10" fill="white" stroke="black" stroke-width="1.5"/>
<text x="185" y="33" text-anchor="middle" font-size="10" font-family="serif" font-weight="bold">4-step</text>
<text x="185" y="46" text-anchor="middle" font-size="10" font-family="serif" font-weight="bold">Tree-backup</text>
<circle cx="185" cy="55" r="10" fill="white" stroke="black" stroke-width="1.5"/>
<line x1="185" y1="65" x2="157" y2="73" stroke="black" stroke-width="1.5"/>
<circle cx="157" cy="73" r="6" fill="black"/>
<line x1="185" y1="65" x2="213" y2="73" stroke="black" stroke-width="1.5"/>
<circle cx="213" cy="73" r="6" fill="black"/>
<line x1="185" y1="65" x2="185" y2="79" stroke="black" stroke-width="1.5"/>
<circle cx="185" cy="85" r="6" fill="black"/>
<line x1="185" y1="91" x2="185" y2="105" stroke="black" stroke-width="1.5"/>
<circle cx="185" cy="115" r="10" fill="white" stroke="black" stroke-width="1.5"/>
<line x1="185" y1="125" x2="157" y2="133" stroke="black" stroke-width="1.5"/>
<circle cx="157" cy="133" r="6" fill="black"/>
<line x1="185" y1="125" x2="213" y2="133" stroke="black" stroke-width="1.5"/>
<circle cx="213" cy="133" r="6" fill="black"/>
<line x1="185" y1="125" x2="185" y2="139" stroke="black" stroke-width="1.5"/>
<circle cx="185" cy="145" r="6" fill="black"/>
<line x1="185" y1="151" x2="185" y2="165" stroke="black" stroke-width="1.5"/>
<circle cx="185" cy="175" r="10" fill="white" stroke="black" stroke-width="1.5"/>
<line x1="185" y1="185" x2="157" y2="193" stroke="black" stroke-width="1.5"/>
<circle cx="157" cy="193" r="6" fill="black"/>
<line x1="185" y1="185" x2="213" y2="193" stroke="black" stroke-width="1.5"/>
<circle cx="213" cy="193" r="6" fill="black"/>
<line x1="185" y1="185" x2="185" y2="199" stroke="black" stroke-width="1.5"/>
<circle cx="185" cy="205" r="6" fill="black"/>
<line x1="185" y1="211" x2="185" y2="225" stroke="black" stroke-width="1.5"/>
<circle cx="185" cy="235" r="10" fill="white" stroke="black" stroke-width="1.5"/>
<line x1="185" y1="245" x2="157" y2="253" stroke="black" stroke-width="1.5"/>
<circle cx="157" cy="253" r="6" fill="black"/>
<line x1="185" y1="245" x2="213" y2="253" stroke="black" stroke-width="1.5"/>
<circle cx="213" cy="253" r="6" fill="black"/>
<line x1="185" y1="245" x2="185" y2="259" stroke="black" stroke-width="1.5"/>
<circle cx="185" cy="265" r="6" fill="black"/>
<line x1="185" y1="271" x2="185" y2="285" stroke="black" stroke-width="1.5"/>
<circle cx="185" cy="295" r="10" fill="white" stroke="black" stroke-width="1.5"/>
<text x="310" y="33" text-anchor="middle" font-size="10" font-family="serif" font-weight="bold">4-step</text>
<text x="310" y="46" text-anchor="middle" font-size="10" font-family="serif" font-weight="bold">Exp. Sarsa</text>
<circle cx="310" cy="55" r="10" fill="white" stroke="black" stroke-width="1.5"/>
<line x1="310" y1="65" x2="310" y2="79" stroke="black" stroke-width="1.5"/>
<circle cx="310" cy="85" r="6" fill="black"/>
<line x1="310" y1="91" x2="310" y2="105" stroke="black" stroke-width="1.5"/>
<circle cx="310" cy="115" r="10" fill="white" stroke="black" stroke-width="1.5"/>
<line x1="310" y1="125" x2="310" y2="139" stroke="black" stroke-width="1.5"/>
<circle cx="310" cy="145" r="6" fill="black"/>
<line x1="310" y1="151" x2="310" y2="165" stroke="black" stroke-width="1.5"/>
<circle cx="310" cy="175" r="10" fill="white" stroke="black" stroke-width="1.5"/>
<line x1="310" y1="185" x2="310" y2="199" stroke="black" stroke-width="1.5"/>
<circle cx="310" cy="205" r="6" fill="black"/>
<line x1="310" y1="211" x2="310" y2="225" stroke="black" stroke-width="1.5"/>
<circle cx="310" cy="235" r="10" fill="white" stroke="black" stroke-width="1.5"/>
<line x1="310" y1="245" x2="310" y2="259" stroke="black" stroke-width="1.5"/>
<circle cx="310" cy="265" r="6" fill="black"/>
<line x1="310" y1="271" x2="310" y2="285" stroke="black" stroke-width="1.5"/>
<circle cx="310" cy="295" r="10" fill="white" stroke="black" stroke-width="1.5"/>
<line x1="310" y1="305" x2="286" y2="317" stroke="black" stroke-width="1.5"/>
<circle cx="286" cy="323" r="6" fill="black"/>
<line x1="310" y1="305" x2="310" y2="317" stroke="black" stroke-width="1.5"/>
<circle cx="310" cy="323" r="6" fill="black"/>
<line x1="310" y1="305" x2="334" y2="317" stroke="black" stroke-width="1.5"/>
<circle cx="334" cy="323" r="6" fill="black"/>
<text x="450" y="33" text-anchor="middle" font-size="10" font-family="serif" font-weight="bold">4-step</text>
<text x="450" y="46" text-anchor="middle" font-size="10" font-family="serif" font-weight="bold">Q(σ)</text>
<circle cx="450" cy="55" r="10" fill="white" stroke="black" stroke-width="1.5"/>
<line x1="450" y1="65" x2="450" y2="79" stroke="black" stroke-width="1.5"/>
<circle cx="450" cy="85" r="6" fill="black"/>
<text x="472" y="89" text-anchor="middle" font-size="9" font-family="serif" font-weight="normal">σ=1</text>
<line x1="450" y1="91" x2="450" y2="105" stroke="black" stroke-width="1.5"/>
<circle cx="450" cy="115" r="10" fill="white" stroke="black" stroke-width="1.5"/>
<line x1="450" y1="125" x2="424" y2="135" stroke="black" stroke-width="1.5"/>
<circle cx="424" cy="135" r="6" fill="black"/>
<line x1="450" y1="125" x2="476" y2="135" stroke="black" stroke-width="1.5"/>
<circle cx="476" cy="135" r="6" fill="black"/>
<text x="488" y="139" text-anchor="middle" font-size="9" font-family="serif" font-weight="normal">σ=0</text>
<line x1="450" y1="125" x2="450" y2="139" stroke="black" stroke-width="1.5"/>
<circle cx="450" cy="145" r="6" fill="black"/>
<line x1="450" y1="151" x2="450" y2="165" stroke="black" stroke-width="1.5"/>
<circle cx="450" cy="175" r="10" fill="white" stroke="black" stroke-width="1.5"/>
<line x1="450" y1="185" x2="450" y2="199" stroke="black" stroke-width="1.5"/>
<circle cx="450" cy="205" r="6" fill="black"/>
<text x="472" y="209" text-anchor="middle" font-size="9" font-family="serif" font-weight="normal">σ=1</text>
<line x1="450" y1="211" x2="450" y2="225" stroke="black" stroke-width="1.5"/>
<circle cx="450" cy="235" r="10" fill="white" stroke="black" stroke-width="1.5"/>
<line x1="450" y1="245" x2="424" y2="255" stroke="black" stroke-width="1.5"/>
<circle cx="424" cy="255" r="6" fill="black"/>
<line x1="450" y1="245" x2="476" y2="255" stroke="black" stroke-width="1.5"/>
<circle cx="476" cy="255" r="6" fill="black"/>
<text x="488" y="259" text-anchor="middle" font-size="9" font-family="serif" font-weight="normal">σ=0</text>
<line x1="450" y1="245" x2="450" y2="259" stroke="black" stroke-width="1.5"/>
<circle cx="450" cy="265" r="6" fill="black"/>
<line x1="450" y1="271" x2="450" y2="285" stroke="black" stroke-width="1.5"/>
<circle cx="450" cy="295" r="10" fill="white" stroke="black" stroke-width="1.5"/>
<text x="280" y="412" text-anchor="middle" font-size="10" font-family="serif" font-weight="normal">Figure 7.6 — 4-step Q(σ) and comparisons</text>
</svg>