<svg xmlns="http://www.w3.org/2000/svg" width="320" height="420" viewBox="0 0 320 420">
<text x="90" y="33" text-anchor="middle" font-size="10" font-family="serif" font-weight="bold">4-step TD</text>
<text x="90" y="45" text-anchor="middle" font-size="9" font-family="serif" font-weight="normal">(importance sampling)</text>
<circle cx="90" cy="55" r="10" fill="white" stroke="black" stroke-width="1.5"/>
<line x1="90" y1="65" x2="90" y2="79" stroke="black" stroke-width="1.5"/>
<circle cx="90" cy="85" r="6" fill="black"/>
<text x="106" y="89" text-anchor="middle" font-size="11" font-family="serif" font-weight="normal">ρ</text>
<line x1="90" y1="91" x2="90" y2="105" stroke="black" stroke-width="1.5"/>
<circle cx="90" cy="115" r="10" fill="white" stroke="black" stroke-width="1.5"/>
<line x1="90" y1="125" x2="90" y2="139" stroke="black" stroke-width="1.5"/>
<circle cx="90" cy="145" r="6" fill="black"/>
<text x="106" y="149" text-anchor="middle" font-size="11" font-family="serif" font-weight="normal">ρ</text>
<line x1="90" y1="151" x2="90" y2="165" stroke="black" stroke-width="1.5"/>
<circle cx="90" cy="175" r="10" fill="white" stroke="black" stroke-width="1.5"/>
<line x1="90" y1="185" x2="90" y2="199" stroke="black" stroke-width="1.5"/>
<circle cx="90" cy="205" r="6" fill="black"/>
<text x="106" y="209" text-anchor="middle" font-size="11" font-family="serif" font-weight="normal">ρ</text>
<line x1="90" y1="211" x2="90" y2="225" stroke="black" stroke-width="1.5"/>
<circle cx="90" cy="235" r="10" fill="white" stroke="black" stroke-width="1.5"/>
<line x1="90" y1="245" x2="90" y2="259" stroke="black" stroke-width="1.5"/>
<circle cx="90" cy="265" r="6" fill="black"/>
<text x="106" y="269" text-anchor="middle" font-size="11" font-family="serif" font-weight="normal">ρ</text>
<line x1="90" y1="271" x2="90" y2="285" stroke="black" stroke-width="1.5"/>
<circle cx="90" cy="295" r="10" fill="white" stroke="black" stroke-width="1.5"/>
<text x="230" y="33" text-anchor="middle" font-size="10" font-family="serif" font-weight="bold">4-step Q(σ)</text>
<circle cx="230" cy="55" r="10" fill="white" stroke="black" stroke-width="1.5"/>
<line x1="230" y1="65" x2="230" y2="79" stroke="black" stroke-width="1.5"/>
<circle cx="230" cy="85" r="6" fill="black"/>
<text x="252" y="89" text-anchor="middle" font-size="9" font-family="serif" font-weight="normal">σ=1</text>
<line x1="230" y1="91" x2="230" y2="105" stroke="black" stroke-width="1.5"/>
<circle cx="230" cy="115" r="10" fill="white" stroke="black" stroke-width="1.5"/>
<line x1="230" y1="125" x2="202" y2="137" stroke="black" stroke-width="1.5"/>
<circle cx="202" cy="137" r="6" fill="black"/>
<line x1="230" y1="125" x2="258" y2="137" stroke="black" stroke-width="1.5"/>
<circle cx="258" cy="137" r="6" fill="black"/>
<text x="270" y="141" text-anchor="middle" font-size="9" font-family="serif" font-weight="normal">σ=0</text>
<line x1="230" y1="125" x2="230" y2="139" stroke="black" stroke-width="1.5"/>
<circle cx="230" cy="145" r="6" fill="black"/>
<line x1="230" y1="151" x2="230" y2="165" stroke="black" stroke-width="1.5"/>
<circle cx="230" cy="175" r="10" fill="white" stroke="black" stroke-width="1.5"/>
<line x1="230" y1="185" x2="230" y2="199" stroke="black" stroke-width="1.5"/>
<circle cx="230" cy="205" r="6" fill="black"/>
<text x="252" y="209" text-anchor="middle" font-size="9" font-family="serif" font-weight="normal">σ=1</text>
<line x1="230" y1="211" x2="230" y2="225" stroke="black" stroke-width="1.5"/>
<circle cx="230" cy="235" r="10" fill="white" stroke="black" stroke-width="1.5"/>
<line x1="230" y1="245" x2="202" y2="257" stroke="black" stroke-width="1.5"/>
<circle cx="202" cy="257" r="6" fill="black"/>
<line x1="230" y1="245" x2="258" y2="257" stroke="black" stroke-width="1.5"/>
<circle cx="258" cy="257" r="6" fill="black"/>
<text x="270" y="261" text-anchor="middle" font-size="9" font-family="serif" font-weight="normal">σ=0</text>
<line x1="230" y1="245" x2="230" y2="259" stroke="black" stroke-width="1.5"/>
<circle cx="230" cy="265" r="6" fill="black"/>
<line x1="230" y1="271" x2="230" y2="285" stroke="black" stroke-width="1.5"/>
<circle cx="230" cy="295" r="10" fill="white" stroke="black" stroke-width="1.5"/>
<text x="160" y="412" text-anchor="middle" font-size="10" font-family="serif" font-weight="normal">Figure 7.7 — Summary backup diagrams</text>
</svg>