<svg xmlns="http://www.w3.org/2000/svg" width="260" height="400" viewBox="0 0 260 400">
<text x="130" y="18" text-anchor="middle" font-size="11" font-family="serif" font-weight="bold">3-step Tree Backup</text>
<circle cx="130" cy="40" r="10" fill="white" stroke="black" stroke-width="1.5"/>
<text x="148" y="77" text-anchor="middle" font-size="9" font-family="serif" font-weight="normal">R_{t+1}</text>
<line x1="130" y1="50" x2="75" y2="62" stroke="black" stroke-width="1.5"/>
<circle cx="75" cy="62" r="6" fill="black"/>
<line x1="130" y1="50" x2="100" y2="62" stroke="black" stroke-width="1.5"/>
<circle cx="100" cy="62" r="6" fill="black"/>
<line x1="130" y1="50" x2="160" y2="62" stroke="black" stroke-width="1.5"/>
<circle cx="160" cy="62" r="6" fill="black"/>
<line x1="130" y1="50" x2="185" y2="62" stroke="black" stroke-width="1.5"/>
<circle cx="185" cy="62" r="6" fill="black"/>
<line x1="130" y1="50" x2="130" y2="104" stroke="black" stroke-width="1.5"/>
<circle cx="130" cy="110" r="6" fill="black"/>
<text x="144" y="114" text-anchor="middle" font-size="9" font-family="serif" font-weight="normal">A_{t+1}</text>
<line x1="130" y1="116" x2="130" y2="120" stroke="black" stroke-width="1.5"/>
<circle cx="130" cy="130" r="10" fill="white" stroke="black" stroke-width="1.5"/>
<text x="148" y="167" text-anchor="middle" font-size="9" font-family="serif" font-weight="normal">R_{t+2}</text>
<line x1="130" y1="140" x2="75" y2="152" stroke="black" stroke-width="1.5"/>
<circle cx="75" cy="152" r="6" fill="black"/>
<line x1="130" y1="140" x2="100" y2="152" stroke="black" stroke-width="1.5"/>
<circle cx="100" cy="152" r="6" fill="black"/>
<line x1="130" y1="140" x2="160" y2="152" stroke="black" stroke-width="1.5"/>
<circle cx="160" cy="152" r="6" fill="black"/>
<line x1="130" y1="140" x2="185" y2="152" stroke="black" stroke-width="1.5"/>
<circle cx="185" cy="152" r="6" fill="black"/>
<line x1="130" y1="140" x2="130" y2="194" stroke="black" stroke-width="1.5"/>
<circle cx="130" cy="200" r="6" fill="black"/>
<text x="144" y="204" text-anchor="middle" font-size="9" font-family="serif" font-weight="normal">A_{t+2}</text>
<line x1="130" y1="206" x2="130" y2="210" stroke="black" stroke-width="1.5"/>
<circle cx="130" cy="220" r="10" fill="white" stroke="black" stroke-width="1.5"/>
<text x="148" y="257" text-anchor="middle" font-size="9" font-family="serif" font-weight="normal">R_{t+3}</text>
<line x1="130" y1="230" x2="75" y2="242" stroke="black" stroke-width="1.5"/>
<circle cx="75" cy="242" r="6" fill="black"/>
<line x1="130" y1="230" x2="100" y2="242" stroke="black" stroke-width="1.5"/>
<circle cx="100" cy="242" r="6" fill="black"/>
<line x1="130" y1="230" x2="160" y2="242" stroke="black" stroke-width="1.5"/>
<circle cx="160" cy="242" r="6" fill="black"/>
<line x1="130" y1="230" x2="185" y2="242" stroke="black" stroke-width="1.5"/>
<circle cx="185" cy="242" r="6" fill="black"/>
<line x1="130" y1="230" x2="130" y2="284" stroke="black" stroke-width="1.5"/>
<circle cx="130" cy="290" r="6" fill="black"/>
<text x="144" y="294" text-anchor="middle" font-size="9" font-family="serif" font-weight="normal">A_{t+3}</text>
<line x1="130" y1="230" x2="130" y2="284" stroke="black" stroke-width="1.5"/>
<line x1="130" y1="296" x2="130" y2="280" stroke="black" stroke-width="1.5"/>
<circle cx="130" cy="290" r="10" fill="white" stroke="black" stroke-width="1.5"/>
<text x="130" y="372" text-anchor="middle" font-size="9" font-family="serif" font-weight="normal">○ sampled state/action (on path)</text>
<text x="130" y="386" text-anchor="middle" font-size="9" font-family="serif" font-weight="normal">● unselected actions (leaf nodes)</text>
<text x="130" y="358" text-anchor="middle" font-size="10" font-family="serif" font-weight="normal">Figure 7.5 — 3-step Tree Backup</text>
</svg>